<?xml version="1.0" standalone="no"?><svg xmlns="http://www.w3.org/2000/svg" viewBox="0 0 1440 320"><path fill="#a20202" fill-opacity="1" d="M0,64L40,58.7C80,53,160,43,240,85.3C320,128,400,224,480,240C560,256,640,192,720,149.3C800,107,880,85,960,96C1040,107,1120,149,1200,160C1280,171,1360,149,1400,138.7L1440,128L1440,320L1400,320C1360,320,1280,320,1200,320C1120,320,1040,320,960,320C880,320,800,320,720,320C640,320,560,320,480,320C400,320,320,320,240,320C160,320,80,320,40,320L0,320Z"></path></svg>